<svg width="80" height="80" viewBox="0 0 80 80" fill="none" xmlns="http://www.w3.org/2000/svg">
<path d="M74.4 42.6072C74.4 25.8279 60.794 12.2219 44.0147 12.2219C27.2354 12.2219 13.6294 25.8279 13.6294 42.6072C13.6294 59.3865 27.2354 72.9925 44.0147 72.9925C50.6307 72.9925 56.7463 70.8752 61.7344 67.2839L74.4 77.3097V42.6072Z" stroke="white" stroke-width="2" stroke-miterlimit="10"/>
<path d="M5.6 34.3853C5.6 17.606 19.206 4 35.9853 4C52.7646 4 66.3706 17.606 66.3706 34.3853C66.3706 51.1646 52.7646 64.7706 35.9853 64.7706C29.3693 64.7706 23.2537 62.6532 18.2656 59.062L5.6 69.0878V34.3853Z" stroke="white" stroke-width="2" stroke-miterlimit="10"/>
<path d="M32.4656 46.3602V47.5081C32.408 51.34 35.4871 54.4836 39.3469 54.5403C43.2067 54.5979 46.373 51.5406 46.4306 47.7087V42.7281L46.4367 42.7447V40.9094L45.5862 40.0965L40.8646 35.395L40.8542 31.2325H37.9844L37.974 36.6388L39.1175 37.7161L43.539 42.0687V47.4654C43.5826 49.7045 41.7901 51.5554 39.5205 51.599C37.2657 51.6418 35.4008 49.8623 35.3572 47.6093V46.1168C35.3572 46.109 35.3554 46.1011 35.3545 46.0933V45.119L34.7867 44.5755L29.8933 39.7589V32.3534C29.8785 27.1146 34.1438 22.8666 39.4053 22.8518H39.449C44.2918 22.8518 48.4551 26.5834 48.9322 31.3773V31.6591L48.954 31.6809C48.954 31.6809 48.954 31.6852 48.9549 31.687L50.0967 32.8209C50.0967 32.8209 50.1002 32.8209 50.1028 32.8218L51.829 34.5358V31.3773H51.8264C51.8255 31.3485 51.8264 31.3206 51.8229 31.291L51.7941 31.0755C51.085 24.3006 44.9843 19.3636 38.1615 20.0667C31.8149 20.713 27.0009 26.0234 27.0009 32.3525V39.1309V39.1283L27 40.9635L27.8225 41.7503L32.4647 46.3593L32.4656 46.3602Z" fill="white"/>
<path d="M51.8956 40.5054V38.6701L50.7599 37.5842L46.4291 33.2857V32.7117C46.4867 28.8798 43.4076 25.7362 39.5478 25.6795C35.6881 25.6219 32.5217 28.6792 32.4642 32.5111V38.8263C32.4624 38.8751 32.4642 38.924 32.4668 38.9719V39.4142L32.7913 39.7247C32.8244 39.7622 32.8602 39.7971 32.8977 39.8311L37.928 44.7969L37.9263 48.9585H39.3585C39.3638 48.9585 39.3681 48.9585 39.3734 48.9585C39.3786 48.9585 39.383 48.9585 39.3882 48.9585H40.8196V43.6429L40.5108 43.3481C40.4715 43.3027 40.4306 43.2591 40.3852 43.2181L35.3548 38.2096V32.7126C35.3112 30.4595 37.1186 28.6077 39.3734 28.5789C41.6282 28.5501 43.4931 30.3156 43.5367 32.5687V34.5618L44.6724 35.6477L49.0302 39.9742V47.5524C49.0302 52.7912 44.7509 57.0391 39.4746 57.0391C34.4311 56.9676 30.2783 53.1026 29.9224 48.1735V47.9606L27.0273 45.083V48.2415H27.0291C27.0291 48.2607 27.0291 48.279 27.0291 48.2973V48.3401C27.419 55.1577 33.2885 60.3668 40.1549 59.9795C46.8051 59.6062 51.9802 54.1092 51.893 47.5079V40.5019V40.5045L51.8956 40.5054Z" fill="white"/>
</svg>

